PathFileType	4	(X/Y/Z)	D:\TRACE\spot_10-12-23\spot_arm_body_motion_1_5-platform.trc
DataRate	CameraRate	NumFrames	NumMarkers	Units	OrigDataRate	OrigDataStartFrame	OrigNumFrames
100.00	100.00	      73	5	mm	100.00	876	      7000
Frame#	Time	Left_Front			Right_Front			Left_Aft			Right_Aft			Post			
		X1	Y1	Z1	X2	Y2	Z2	X3	Y3	Z3	X4	Y4	Z4	X5	Y5	Z5	

876	8.750	-737.76306	-8.96270	-655.67499	829.50757	-10.51067	-631.31714	-670.36578	25.53864	482.46335	737.99866	26.26494	584.28040	50.05605	709.62463	-987.01056	
877	8.760	-738.08270	-9.13430	-655.69440	829.10229	-10.78968	-631.32300	-670.61975	25.66702	482.43759	737.55920	26.54799	584.29395	49.54961	709.25427	-987.41022	
878	8.770	-738.68854	-9.37297	-655.61731	828.67413	-10.92638	-631.30096	-671.27460	25.85203	482.43130	737.05188	26.79334	584.23773	49.08486	708.99249	-988.13593	
879	8.780	-739.14063	-9.45860	-655.86670	828.19165	-11.05337	-631.24548	-671.99170	26.15550	482.32495	736.53253	27.00892	584.11859	48.56400	708.62439	-988.72321	
880	8.790	-739.98639	-9.72821	-656.00830	827.66425	-11.46834	-631.26117	-672.48108	26.33341	482.11551	736.06250	27.14976	583.98730	48.25936	707.94507	-989.23309	
881	8.800	-740.45276	-10.03782	-655.98456	827.09814	-11.81038	-631.41455	-672.93976	26.53869	482.06775	735.58362	27.30495	583.90417	47.86450	707.44043	-989.99146	
882	8.810	-740.72296	-10.34155	-655.96497	826.68048	-11.96562	-631.50800	-673.32495	26.78626	481.95929	735.12012	27.56255	583.81982	47.30654	707.09729	-990.67999	
883	8.820	-741.10004	-10.67096	-656.06989	826.19861	-12.15755	-631.55243	-673.84576	26.88399	481.99811	734.63879	27.91534	583.71625	46.71986	706.74622	-991.01813	
884	8.830	-741.54004	-11.04470	-656.07367	825.71765	-12.45092	-631.60303	-674.40674	27.09343	481.92856	734.10614	27.97070	583.43573	46.32178	706.30902	-991.44299	
885	8.840	-742.21375	-11.32874	-656.08539	825.11908	-12.82023	-631.78625	-674.87231	27.28358	481.72543	733.49097	28.27182	583.48743	45.60673	705.77765	-991.95349	
886	8.850	-742.83679	-11.57042	-656.20654	824.44653	-13.19789	-631.98828	-675.43604	27.37646	481.61157	732.86224	28.45508	583.37061	45.02563	705.39337	-992.29773	
887	8.860	-743.37006	-11.74827	-656.33740	823.91467	-13.43021	-631.94525	-675.92517	27.46814	481.53769	732.42120	28.59133	583.26770	44.60313	705.08093	-992.52631	
888	8.870	-743.90698	-12.08856	-656.55084	823.48236	-13.65418	-631.93890	-676.60315	27.79635	481.38049	731.88013	28.86109	583.16632	44.18883	704.74078	-992.64996	
889	8.880	-744.45605	-12.29064	-656.60376	822.81519	-14.08871	-631.95160	-677.21637	28.09989	481.30286	731.39117	29.19589	583.14795	43.63827	704.29437	-992.64526	
890	8.890	-744.79175	-12.57962	-656.77240	822.31042	-14.11063	-632.03754	-677.81702	28.28130	481.32816	730.64923	29.26020	582.97479	42.95348	703.79169	-992.60144	
891	8.900	-745.71484	-12.61929	-656.50690	821.57074	-14.49440	-632.06342	-678.34943	28.38282	481.33481	730.00574	29.44169	583.07849	42.33046	703.53082	-992.83374	
892	8.910	-746.30823	-13.12762	-656.53137	820.96692	-14.77986	-632.09900	-679.02112	28.47868	481.19763	729.34100	29.50285	583.04828	41.34616	703.15833	-993.00653	
893	8.920	-747.06525	-13.13836	-656.66718	820.37262	-14.94868	-632.16296	-679.69244	28.53111	481.10220	728.69696	29.70965	582.98621	41.36160	702.98291	-993.12964	
894	8.930	-747.91339	-13.01697	-656.84021	819.67859	-14.97069	-632.30865	-680.30707	28.71758	481.05942	728.15271	29.92397	582.85425	40.98766	702.78503	-993.42230	
895	8.940	-748.42535	-13.16413	-656.73706	819.02112	-15.03754	-632.36969	-681.02325	28.85774	480.94467	727.42419	30.07975	582.80499	40.16174	702.52332	-993.86792	
896	8.950	-749.06085	-13.54937	-656.78113	818.36511	-15.23671	-632.35040	-681.69879	28.98869	480.88333	726.62573	30.19867	582.76416	39.37590	702.20367	-994.33032	
897	8.960	-749.61768	-13.94685	-656.79840	817.59088	-15.57037	-632.29370	-682.39972	29.07864	480.83047	726.00037	30.28277	582.72321	38.81628	701.76654	-994.60162	
898	8.970	-750.19476	-14.19911	-656.89728	816.83759	-15.73854	-632.32709	-683.01532	29.11603	480.86707	725.31952	30.38476	582.61963	38.18937	701.53925	-994.88269	
899	8.980	-751.13873	-14.02437	-657.03680	816.21393	-15.83444	-632.31616	-683.77203	29.30866	480.82214	724.72076	30.48874	582.57404	37.64499	701.37903	-995.23260	
900	8.990	-751.83624	-14.06563	-657.01636	815.59515	-15.96241	-632.35370	-684.40399	29.43328	480.73990	723.87854	30.61808	582.30750	36.72132	701.18915	-995.66132	
901	9.000	-752.63824	-14.43114	-657.03534	814.89459	-16.01786	-632.36523	-685.08185	29.55648	480.65219	723.20306	30.84160	582.33685	35.29729	700.85840	-995.89569	
902	9.010	-753.23950	-14.78960	-656.98737	813.94922	-16.24531	-632.53870	-686.02325	29.62222	480.61963	722.46777	30.87579	582.25366	34.62281	700.58893	-995.85632	
903	9.020	-753.89160	-15.05000	-657.01996	813.19495	-16.50906	-632.64301	-686.78131	29.68137	480.58420	721.59662	31.05160	582.53534	35.17751	700.50183	-995.74634	
904	9.030	-754.78815	-15.03942	-657.13086	812.39453	-16.74459	-632.76678	-687.38849	29.74705	480.54355	720.88965	31.15912	582.55774	34.10897	700.22839	-996.11212	
905	9.040	-755.63715	-15.06699	-657.17157	811.71625	-16.79631	-632.66974	-688.25592	29.90372	480.50226	720.26575	31.31784	582.51923	32.13869	699.92828	-996.17041	
906	9.050	-756.46735	-15.10136	-657.16650	811.00134	-16.70956	-632.68848	-688.96216	30.07160	480.49390	719.52466	31.47953	582.36359	31.57158	699.69165	-996.25842	
907	9.060	-757.01581	-15.29536	-657.20935	810.18848	-16.70212	-632.71674	-689.77509	30.07564	480.40942	718.66858	31.46064	582.36414	31.00648	699.48816	-996.42493	
908	9.070	-757.79865	-15.66728	-657.23248	809.36542	-17.39668	-632.71014	-690.59509	30.22832	480.29065	717.77795	31.57254	582.36127	30.13255	699.30548	-996.63281	
909	9.080	-758.49225	-16.20780	-657.60461	808.62170	-17.53859	-632.72015	-691.69495	30.20739	480.37576	717.02118	31.64069	582.00696	29.20505	699.14075	-996.87158	
910	9.090	-759.74561	-15.90353	-657.46411	807.70496	-17.43588	-632.87775	-692.21906	30.35743	480.21298	716.18878	31.86175	581.96185	28.43209	698.98224	-997.09985	
911	9.100	-760.50970	-15.59534	-657.32697	806.78467	-17.14667	-632.93329	-693.06085	30.31186	480.20322	715.80927	32.01643	581.86609	27.76106	698.85565	-997.20428	
912	9.110	-761.19910	-15.67051	-657.30023	806.05890	-17.41200	-632.93713	-693.90375	30.34003	480.15552	715.19006	32.06656	582.12506	26.86448	698.92725	-997.30579	
913	9.120	-762.00049	-15.88249	-657.30762	805.19049	-17.56404	-632.88831	-694.65076	30.44529	480.19223	713.48547	32.05384	582.25177	25.71999	698.95856	-997.62939	
914	9.130	-763.00256	-16.04115	-657.49377	804.43915	-17.52823	-632.82208	-695.54449	30.45616	480.19156	712.68256	32.18216	582.22998	24.77658	698.83704	-997.78894	
915	9.140	-763.96954	-15.87846	-657.37878	803.49512	-17.43916	-632.84692	-696.48309	30.44619	480.14774	711.71875	32.04752	582.21851	24.08845	698.67175	-997.80389	
916	9.150	-764.71008	-15.82739	-657.29767	802.73010	-17.47759	-632.91248	-697.23547	30.51551	480.20499	710.77618	32.00032	582.23944	23.52302	698.58325	-997.80017	
917	9.160	-765.33862	-15.96645	-657.44727	801.82788	-17.82522	-633.01929	-698.19659	30.50429	480.12186	709.93555	32.09860	582.30640	22.70991	698.55627	-997.78986	
918	9.170	-766.37872	-16.04230	-657.52362	800.97943	-17.68102	-632.91083	-699.01917	30.66432	480.12729	709.14063	32.23116	582.24005	21.45245	698.53101	-997.86060	
919	9.180	-767.49457	-16.11733	-657.55103	799.97955	-17.64085	-632.98352	-700.13354	30.75952	480.13199	708.28790	32.41042	582.25659	20.54507	698.52081	-997.69916	
920	9.190	-768.26776	-16.05750	-657.50964	798.86786	-17.74008	-632.99115	-700.90338	30.73959	479.96576	707.42114	32.10941	582.02637	19.94885	698.41046	-997.58875	
921	9.200	-769.01050	-16.11301	-657.52557	798.20605	-17.96137	-633.01117	-701.61731	30.67329	480.06631	706.39825	32.04568	582.16681	18.94533	698.31348	-997.51019	
922	9.210	-769.95636	-16.10501	-657.55634	797.40948	-17.95195	-632.94202	-702.82928	30.62527	480.14023	705.55450	32.10268	582.11279	17.88929	698.33734	-997.34894	
923	9.220	-771.06677	-16.13128	-657.59717	796.40698	-17.76603	-632.92389	-703.68066	30.61272	480.13852	704.60626	32.21556	582.08716	17.17248	698.43475	-997.19336	
924	9.230	-771.80731	-16.09761	-657.57477	795.53809	-17.66378	-633.05878	-704.44391	30.83146	479.93341	703.81311	32.32666	582.15643	16.23064	698.34766	-997.56415	
925	9.240	-772.69916	-16.06244	-657.52924	794.50653	-17.78356	-633.06018	-705.55145	30.78930	479.85880	702.88629	32.31929	582.08331	15.11138	698.51849	-997.89569	
926	9.250	-773.80542	-15.95968	-657.58319	793.54120	-18.02059	-633.16388	-706.25012	30.69808	480.00574	701.75006	32.18116	582.09210	14.45995	698.35223	-997.82758	
927	9.260	-774.76227	-16.04193	-657.66772	792.37140	-18.08468	-633.14355	-707.24304	30.66043	480.04123	700.88751	32.09546	582.13196	13.33241	698.46960	-997.83490	
928	9.270	-775.28796	-16.13734	-657.81525	791.69464	-17.77612	-633.02155	-708.12842	30.67286	480.12427	699.95776	32.03640	582.12195	12.22576	698.69122	-997.89417	
929	9.280	-776.47913	-15.87859	-657.45270	790.81586	-17.49808	-632.93213	-709.11920	30.62350	480.18839	699.02142	31.97033	582.02704	11.67307	698.71094	-997.87921	
930	9.290	-777.53271	-15.58095	-657.62061	789.80939	-17.42978	-632.95258	-710.12115	30.63489	480.18994	698.07855	31.69114	581.82910	10.66264	698.86511	-997.89282	
931	9.300	-778.56024	-15.43827	-657.49585	788.95789	-17.32066	-633.02606	-711.03833	30.39856	480.20056	697.17114	31.67756	582.16650	9.33289	699.09631	-997.79742	
932	9.310	-779.33997	-15.59419	-657.42291	787.91913	-17.24652	-633.04584	-711.97382	30.14146	480.18933	696.19330	31.47890	582.20404	8.62375	699.34033	-997.56195	
933	9.320	-780.08038	-15.61191	-657.40900	786.87183	-17.02663	-633.02191	-712.82349	30.16205	480.23087	695.16534	31.37850	582.24219	7.74333	699.70807	-997.17072	
934	9.330	-781.27179	-15.16593	-657.65009	786.09967	-16.79842	-632.95624	-713.97333	30.07258	480.27081	694.37964	31.29202	582.05743	6.64888	699.99902	-996.79382	
935	9.340	-782.21021	-14.93096	-657.42322	785.10681	-16.71671	-632.83569	-714.86121	30.07308	480.22739	693.36090	31.23204	581.99408	5.75879	700.07080	-996.49951	
936	9.350	-782.99640	-15.08277	-657.49011	784.06366	-16.75088	-632.90533	-715.71222	29.91927	480.17300	692.45441	31.30403	582.09650	5.07200	700.01758	-996.24103	
937	9.360	-784.12433	-15.01346	-657.37878	783.08868	-16.71321	-632.90979	-716.75403	29.78972	480.22336	691.40588	31.18116	582.19086	3.66747	700.28748	-995.87219	
938	9.370	-785.36865	-14.82088	-657.46906	782.18524	-16.58607	-632.92969	-717.83997	29.70646	480.20383	690.32843	30.94188	582.21509	2.86460	700.28162	-995.71948	
939	9.380	-785.65881	-15.03867	-657.85889	781.07489	-16.41003	-633.01050	-718.44556	29.83087	480.29913	689.43127	30.98564	582.20636	1.85805	700.52496	-995.53180	
940	9.390	-786.95557	-14.43592	-657.38245	780.22949	-16.20958	-632.90729	-719.66425	29.85829	480.27704	688.61475	30.98551	582.17322	0.96880	700.71576	-995.35272	
941	9.400	-788.08063	-14.16264	-657.38641	779.23700	-16.02613	-632.84644	-720.63129	29.74787	480.39294	687.66180	30.84876	582.18634	0.25009	700.90485	-995.20453	
942	9.410	-788.90161	-14.24745	-657.51349	778.29651	-15.97159	-632.83185	-721.63000	29.59494	480.45459	686.45258	30.61144	582.25940	-1.08329	701.15808	-995.55798	
943	9.420	-790.02435	-14.07627	-657.39862	777.34357	-15.83850	-632.71539	-722.67786	29.40356	480.49271	685.60425	30.48250	582.28638	-2.12812	701.54742	-995.66046	
944	9.430	-790.91113	-13.86960	-657.30817	776.34619	-15.66437	-632.78595	-723.45703	29.32134	480.50653	684.73077	30.23046	582.18982	-2.76807	701.68689	-995.54462	
945	9.440	-791.87781	-13.43787	-657.45673	775.38580	-15.33857	-632.82581	-724.45868	29.38455	480.53455	683.56769	30.08877	582.33331	-3.68473	702.11511	-995.42078	
946	9.450	-792.93732	-13.00494	-657.30042	774.23914	-15.17978	-632.70703	-725.36749	29.14537	480.64917	682.71478	30.10283	582.61578	-4.83949	702.41467	-995.55688	
947	9.460	-794.02875	-12.76120	-657.20264	773.45496	-14.74399	-632.73730	-726.41327	28.87713	480.69238	681.73206	29.77332	582.68237	-5.57352	702.79187	-995.10870	
948	9.470	-794.72687	-12.83671	-657.17834	772.34680	-14.85087	-632.71539	-727.47864	28.57728	480.74258	680.73499	29.54585	582.83093	-6.57798	703.22400	-994.79218	
